<svg xmlns="http://www.w3.org/2000/svg" xmlns:xlink="http://www.w3.org/1999/xlink" version="1.1" id="Layer_1" x="0px" y="0px" enable-background="new 0 0 1024 1024" xml:space="preserve" viewBox="238.82 107.22 548.79 541.71">
<path fill="#000000" opacity="1.000000" stroke="none" d=" M243.763275,429.882385   C240.577530,412.249512 238.465683,394.897766 238.864502,377.421692   C240.874634,289.336151 276.206299,217.582077 345.430389,162.961090   C380.622589,135.192795 420.884186,118.312805 465.000916,110.925056   C489.509033,106.820953 514.215515,106.290199 539.040039,108.528252   C580.997620,112.310928 620.262512,124.392921 656.137634,146.453339   C724.017212,188.194046 765.526062,248.698303 782.243042,326.370575   C786.881165,347.920898 788.480957,369.857056 787.168213,391.822723   C784.640320,434.122253 773.326782,474.002014 751.938599,510.744629   C720.764099,564.299438 676.837280,603.668091 619.755371,627.985657   C591.386353,640.071228 561.686096,646.748108 530.837524,648.456299   C459.261078,652.419556 395.450348,631.620239 339.441010,587.444824   C290.009766,548.457520 259.528931,497.191498 245.095490,436.148987   C244.637268,434.211060 244.244446,432.257660 243.763275,429.882385  M635.598755,491.951752   C638.031189,490.506958 640.489136,489.103241 642.891968,487.610870   C660.372803,476.754150 678.039429,475.172699 695.964844,486.523499   C697.722839,487.636658 699.928589,488.447266 699.832214,491.723358   C697.889832,492.233704 695.861511,492.808380 693.812683,493.297058   C687.824951,494.725220 681.744873,495.929810 676.329529,499.024658   C667.151672,504.269653 657.466431,506.759155 646.766602,506.523346   C635.683472,506.279083 626.392395,510.942566 619.476562,519.776794   C609.310730,532.762634 599.156677,545.749573 588.316162,558.193665   C565.227905,584.697144 537.748352,604.889771 504.572296,616.992615   C486.552643,623.566284 467.883179,627.109009 447.323303,628.652710   C467.173431,634.340820 486.042206,636.713928 505.046417,637.519287   C527.562378,638.473389 549.900757,636.137390 571.877686,631.141052   C624.586304,619.158020 669.277588,593.037415 705.986511,553.525635   C747.834900,508.481995 771.088074,454.992523 775.428101,393.730682   C777.483948,364.711823 774.229858,335.925110 765.849304,307.904449   C746.362549,242.749985 708.068970,191.907181 649.902344,156.404556   C607.014282,130.227325 559.945129,118.764885 510.071838,118.582474   C492.311646,118.517509 474.581085,120.494202 457.101746,124.261543   C394.503174,137.753510 343.429321,169.769806 304.426331,220.381363   C272.102692,262.325562 254.272781,309.932678 251.003601,363.060669   C249.849731,381.812500 250.552795,400.375977 253.628525,418.712158   C263.064789,474.967285 288.062134,523.425903 329.425873,562.847839   C357.220245,589.337402 387.303925,612.230530 427.806702,615.243347   C439.919342,616.144348 452.044403,617.168762 464.125610,615.401550   C491.405609,611.411194 516.482483,601.559875 539.271851,586.078430   C554.544617,575.703125 568.696472,564.258728 576.278503,546.520203   C583.135193,530.478821 580.449219,520.614868 566.807312,508.538391   C564.098450,506.140442 560.845947,504.259369 557.623291,502.558228   C549.149902,498.085388 542.523621,491.737030 537.398682,483.705231   C533.621460,477.785767 530.842590,471.357208 527.773804,465.078400   C523.798950,456.945740 519.040833,449.363556 512.739014,442.809052   C511.611694,441.636536 509.914459,440.552795 510.639191,438.634399   C511.326935,436.813904 513.225586,436.920715 514.877869,436.622345   C532.467834,433.445953 549.070190,437.071564 563.642578,446.574463   C593.837708,466.265320 598.113220,482.896179 594.519470,512.077515   C593.808472,517.850464 593.091125,523.622559 592.376770,529.395081   C592.914795,529.468445 593.452881,529.541809 593.990967,529.615173   C617.110596,490.843811 617.369141,448.271942 614.706726,404.849487   C610.796936,405.199493 608.425781,406.845825 605.874695,407.961517   C579.920776,419.311981 552.656860,413.749023 533.870972,392.799194   C516.710754,373.662323 508.641022,350.757263 507.746674,325.327606   C507.021545,304.708008 512.373108,285.425781 522.695984,267.641907   C533.501953,249.025711 549.417603,237.350800 570.919495,233.948929   C576.210510,233.111816 581.565552,233.414856 586.753723,234.941895   C588.547058,235.469727 590.270447,236.412766 590.125122,238.690918   C589.990540,240.800461 588.298279,241.315781 586.577881,241.508408   C584.602112,241.729630 582.604980,241.942978 580.623169,241.897247   C567.943542,241.604691 558.145142,247.041061 550.623962,256.946686   C543.744751,266.006836 539.818054,276.422974 537.359375,287.385468   C533.326233,305.367432 532.229370,323.536163 534.289856,341.899841   C535.878357,356.056305 538.756348,369.772491 546.129517,382.215759   C560.291443,406.116211 588.060486,410.453705 608.750488,392.101562   C611.167664,389.957520 612.254822,387.778900 611.616638,384.729187   C607.738892,366.197571 602.330872,348.268982 590.789734,332.818604   C588.700500,330.021759 586.320007,327.442047 584.237915,324.640320   C583.205322,323.250854 582.874329,321.555695 584.143188,320.015564   C585.401245,318.488525 587.029968,318.516205 588.694214,319.170166   C592.620483,320.713013 595.979431,323.125549 599.122253,325.912079   C610.838623,336.300385 616.095825,350.341492 621.088196,364.543030   C621.719177,366.337982 621.775879,368.445374 623.637756,369.622070   C625.221436,368.752167 625.484680,367.200806 626.030945,365.841034   C632.974854,348.555389 636.810242,330.491760 637.473389,311.987335   C638.205627,291.553375 638.327087,271.061279 634.697937,250.759048   C630.969116,229.898727 622.983276,211.261856 607.355042,196.442154   C595.051147,184.774857 580.564331,177.488205 563.488525,177.538513   C541.436768,177.603485 523.450684,186.375137 511.165558,205.321686   C506.616394,212.337540 503.070801,219.850357 500.268921,227.728287   C492.458099,249.689819 490.854919,272.495483 490.944000,295.542114   C491.103760,336.874176 491.256287,378.206268 491.341095,419.538483   C491.345154,421.517792 492.511444,424.761230 489.782074,425.131714   C486.758148,425.542175 487.012268,422.022217 486.419769,419.954498   C483.984924,411.457245 480.999329,403.153381 477.290100,395.147614   C455.848236,348.868652 429.231079,305.693878 398.666626,264.925873   C393.119568,257.526978 387.294006,250.287292 379.709778,244.007446   C379.542389,245.124435 379.371277,245.733780 379.371124,246.343155   C379.358551,293.509338 379.261841,340.675873 379.432068,387.841400   C379.471466,398.757874 382.940460,408.472900 392.336273,415.187347   C396.422363,418.107361 400.742798,420.550171 405.526154,422.171753   C407.033783,422.682800 409.036255,423.187164 408.559235,425.439117   C408.170715,427.273254 406.438446,427.331543 404.919250,427.332947   C385.252960,427.351257 365.586670,427.357941 345.920380,427.344238   C344.612000,427.343323 343.052032,427.468567 342.629791,425.773041   C342.151611,423.852875 343.614716,423.277771 345.037933,422.595825   C359.649261,415.595276 366.483948,403.539062 366.603851,387.763428   C366.902771,348.433228 366.883087,309.100555 366.978027,269.768890   C367.000092,260.632111 368.028351,251.524323 366.782837,242.346008   C365.947479,236.190170 363.707581,231.185394 358.785492,227.458267   C352.734833,222.876495 346.021973,219.714386 338.596008,217.985962   C337.009674,217.616745 334.505219,217.671051 334.454315,215.164093   C334.404053,212.690842 336.809174,212.464432 338.440247,212.141403   C349.911682,209.869614 361.361115,208.869766 373.060913,211.185135   C389.726013,214.483139 400.846405,225.305115 409.937042,238.316650   C423.099426,257.156189 435.535645,276.508820 448.058624,295.787445   C457.563873,310.420380 466.155182,325.605133 474.041718,341.185760   C469.767822,325.897583 466.966583,310.326477 465.884888,294.612183   C464.085114,268.466614 468.112152,243.046616 479.837982,219.420013   C496.926605,184.987778 528.032349,161.834869 572.529968,168.645264   C610.503845,174.457214 636.923523,195.821594 653.058838,230.150177   C664.996765,255.548523 667.333313,282.516693 664.446960,310.122253   C661.290771,340.309357 649.625183,366.857544 630.127075,390.027252   C628.732300,391.684692 628.523804,393.315491 628.777771,395.518677   C629.823242,404.587128 630.866394,413.682251 631.250000,422.795349   C632.132812,443.770203 630.442078,464.560577 625.619568,485.078308   C633.091919,471.440674 638.933044,457.132477 643.545532,442.345093   C649.151001,424.374298 654.038452,406.020447 665.116028,390.475494   C672.998840,379.413788 675.180664,367.172424 675.638916,354.215546   C675.994446,344.163574 677.843994,334.459045 681.552124,325.066620   C689.313538,305.407501 705.782471,292.753296 719.426697,277.848785   C721.784119,275.273560 723.674133,277.399872 724.277161,280.099609   C728.443909,298.751801 729.112305,317.293488 722.446289,335.605713   C716.263550,352.590057 704.130676,364.754883 690.222656,375.459412   C683.409363,380.703369 677.696289,386.866241 673.105957,394.149353   C664.386902,407.983154 659.212524,423.217224 655.094360,438.888306   C654.807678,439.979218 654.226257,441.162109 655.687744,441.957031   C657.506104,441.546051 657.645020,439.813019 658.277405,438.551086   C661.112854,432.893585 663.676392,427.093201 666.671082,421.523438   C674.981812,406.066589 686.393066,393.971710 703.470398,388.076599   C715.295593,383.994537 727.683777,382.195862 739.713257,378.939148   C743.593262,377.888702 743.962158,380.353485 742.707458,383.310333   C739.260254,391.433929 735.780762,399.535492 731.470520,407.264923   C721.851135,424.514893 707.431030,434.898407 687.942932,438.318787   C673.405090,440.870331 661.316467,447.674347 652.504272,459.698578   C645.487244,469.273468 640.555969,480.082397 634.823853,490.414612   C634.549194,490.909668 633.428345,491.876129 635.598755,491.951752  M576.468994,496.139130   C579.056458,501.411682 582.762695,506.102112 584.681213,511.685425   C580.121033,487.132202 566.142395,469.181549 545.455933,455.961487   C556.118896,468.783173 567.092224,481.381561 576.468994,496.139130  M697.978577,415.447632   C703.365967,411.254425 709.256531,407.640350 714.428467,401.303589   C699.720947,408.853668 686.450989,416.240326 677.177795,428.982300   C684.563599,425.553680 690.763916,420.383148 697.978577,415.447632  M690.049500,358.835846   C697.852844,346.918396 703.962830,334.271454 707.694641,319.675323   C706.222473,320.195770 705.545166,320.221649 705.385254,320.522522   C698.906616,332.711884 693.275208,345.287628 688.416931,358.206055   C688.132263,358.963104 688.275757,360.067444 690.049500,358.835846  M644.313599,495.860413   C651.320251,493.610718 658.672119,492.964783 665.830139,491.380524   C660.307068,490.566650 654.922913,491.549561 649.619629,492.621490   C647.141602,493.122375 644.897461,494.780579 642.547302,495.914215   C642.808594,496.007996 643.064026,496.135620 643.333496,496.181854   C643.477234,496.206482 643.645020,496.090576 644.313599,495.860413  z"/>
</svg>